<?xml version="1.0" encoding="utf-8"?>
<!-- Generator: Adobe Illustrator 25.2.1, SVG Export Plug-In . SVG Version: 6.00 Build 0)  -->
<svg version="1.1" id="圖層_1" xmlns="http://www.w3.org/2000/svg" xmlns:xlink="http://www.w3.org/1999/xlink" x="0px" y="0px"
	 viewBox="0 0 5.8 14.1" style="enable-background:new 0 0 5.8 14.1;" xml:space="preserve">
<style type="text/css">
	.st0{fill:#5D676E;}
	.st1{fill:#AA1D3A;}
</style>
<g>
	<g>
		<path class="st0" d="M142.3,255.5h-15.6v-23.4H97.8v23.4H82.6v-57.7h15.2v23.9h28.9v-23.9h15.6
			C142.3,197.8,142.3,255.5,142.3,255.5z"/>
		<path class="st0" d="M215.9,197.8l-27.8,33.4v24.5h-14.9v-24.5l-27.5-33.4h18.3l16.4,22.9l16.7-22.9H215.9z"/>
		<path class="st0" d="M277.8,255.5h-42.1c-7.6,0-14-3-19-8.9c-4.7-5.6-7-12.3-7-19.9c0-7.9,2.6-14.6,7.8-20.1
			c5.4-5.8,12.2-8.7,20.4-8.7h39.2v10.6h-35.5c-4.7,0-8.5,1.9-11.3,5.6c-2.6,3.4-3.9,7.6-3.9,12.4c0,5.1,1.2,9.4,3.6,13
			c2.8,4.1,6.5,6.2,11.2,6.2h21.2v-14.6h-21.7v-9.6h37L277.8,255.5L277.8,255.5z"/>
		<path class="st0" d="M343.8,255.5H313c-4.8,0-9.3-1-13.7-3c-4.8-2.1-8.4-5.6-10.9-10.2c-2.5-4.7-3.8-9.8-3.8-15.4
			c0-5.6,1.2-10.6,3.6-15.1c2.6-4.9,6.3-8.5,11-10.7c2.6-1.2,5.1-2.1,7.5-2.6c2.4-0.5,5.1-0.7,8.2-0.7h28.5v10.3H317
			c-2.4,0-4.3,0.3-5.9,0.9s-3.2,1.6-4.7,3c-1.6,1.5-2.6,2.9-3.2,4.2c-0.6,1.4-0.9,3.1-0.9,5.1h41.5v10.3h-41.5
			c0,1.9,0.3,3.5,0.8,4.9c0.5,1.4,1.5,2.9,3,4.3c1.4,1.5,2.9,2.6,4.5,3.4c1.5,0.8,3.4,1.2,5.5,1.2h27.9L343.8,255.5L343.8,255.5z"/>
		<path class="st1" d="M423.5,255.5h-15.8l-5.3-13.1h-26.1l-5.7,13.1h-15.6l25.9-57.7h15.5L423.5,255.5z M397.4,232.3l-8.6-20.3
			l-8.3,20.3H397.4z"/>
		<path class="st1" d="M446.7,255.5h-16.9v-57.7h16.9L446.7,255.5L446.7,255.5z"/>
		<path class="st0" d="M-12.9,227.9v17.7c0,23.3,59.3,29.1,59.3,52.4v-17.7C46.4,257-12.9,251.2-12.9,227.9z"/>
		<path class="st1" d="M-12.9,155.3v20.2c0,23.3,59.3,29.1,59.3,52.4v-20.2C46.4,184.4-12.9,178.6-12.9,155.3z"/>
	</g>
	<path class="st0" d="M29.4,210.1c-4.8-2.4-10.1-4.8-15.4-7.1c-13.9,6.9-26.9,13.9-26.9,24.9c0,2.7,1,5.1,2.6,7.3
		c1.4-2.9,5.1-6.1,16.5-13.5C16.2,215.3,26.8,211.1,29.4,210.1z"/>
	<path class="st1" d="M27.1,234.2c-15.3,8.3-23.3,11.3-23.3,11.3c4.9,2.5,10.4,4.9,15.7,7.2c13.9-6.9,26.9-13.9,26.9-24.9
		c0-2.6-0.9-5-2.6-7.2C43.5,221.5,41.1,226.6,27.1,234.2z"/>
</g>
<g>
	<path class="st0" d="M0,7.2v1.8c0,2.3,5.8,2.9,5.8,5.2v-1.8C5.8,10,0,9.4,0,7.2z"/>
	<path class="st1" d="M0,0v2c0,2.3,5.8,2.9,5.8,5.2v-2C5.8,2.9,0,2.3,0,0z"/>
</g>
<path class="st0" d="M4.2,5.4c-0.5-0.2-1-0.5-1.5-0.7C1.3,5.4,0,6.1,0,7.2c0,0.3,0.1,0.5,0.3,0.7c0.1-0.3,0.5-0.6,1.6-1.3
	C2.9,5.9,3.9,5.5,4.2,5.4z"/>
<path class="st1" d="M3.9,7.8C2.4,8.6,1.6,8.9,1.6,8.9c0.5,0.2,1,0.5,1.5,0.7c1.4-0.7,2.7-1.4,2.7-2.5c0-0.3-0.1-0.5-0.2-0.7
	C5.6,6.5,5.3,7,3.9,7.8z"/>
</svg>
